<?xml version="1.0" encoding="utf-8"?>
<!-- Generator: Adobe Illustrator 22.0.1, SVG Export Plug-In . SVG Version: 6.00 Build 0)  -->
<svg version="1.1" id="Warstwa_1" xmlns="http://www.w3.org/2000/svg" xmlns:xlink="http://www.w3.org/1999/xlink" x="0px" y="0px"
	 viewBox="0 0 95 118.7" style="enable-background:new 0 0 95 118.7;" xml:space="preserve">
<style type="text/css">
	.st0{fill:#63BE01;}
</style>
<g>
	<g>
		<path class="st0" d="M25.2,59.3c-5.7,0-10.4,4.7-10.4,10.4s4.7,10.4,10.4,10.4s10.4-4.7,10.4-10.4l0,0C35.6,64,31,59.3,25.2,59.3z
			 M25.2,77.1c-4.1,0-7.4-3.3-7.4-7.4c0-4.1,3.3-7.4,7.4-7.4s7.4,3.3,7.4,7.4C32.6,73.8,29.3,77.1,25.2,77.1z"/>
		<path class="st0" d="M95,18.7c0-0.2,0-0.5,0-0.9V4.4C95,2,93,0,90.6,0c0,0,0,0,0,0H79.1C78,0,77,0.4,76.2,1.1L37.1,35.4
			c-2.3-0.5-4.6-0.8-6.9-0.9C13.5,34.5,0,48,0,64.7S13.5,95,30.2,95c18.2,0,29.1-14.3,29.1-28.2c0-3.9-0.8-7.7-2.4-11.2l13.4-6.7
			c0.5-0.3,0.8-0.8,0.8-1.3V35.6h9h0.2c2-0.1,2.6-0.8,2.6-2.8c0,0,0-0.1,0-0.1V20.8H92c0.3,0,0.5,0,0.8,0.1c0.6,0.1,1.2,0,1.6-0.4
			C94.9,20,95.1,19.3,95,18.7z M92,17.8H81.6c-0.8,0-1.5,0.7-1.5,1.5v13.3H69.7c-0.8,0-1.5,0.7-1.5,1.5v12.4l-14,7
			c-0.7,0.4-1,1.3-0.7,2c0,0.1,0.1,0.1,0.1,0.2c1.3,1.8,2.7,6.3,2.7,11c0,12.4-9.8,25.2-26.1,25.2C15.2,92,3,79.8,3,64.7
			s12.2-27.2,27.2-27.2c2.4,0.1,4.7,0.5,7,1c0.5,0.1,0.9,0,1.3-0.3L78.2,3.3C78.4,3.1,78.8,3,79.1,3h11.5C91.4,3,92,3.6,92,4.4
			c0,0,0,0,0,0V17.8z"/>
		<path class="st0" d="M42.6,41c-0.6,0.6-0.7,1.5-0.1,2.1c0.6,0.6,1.5,0.7,2.1,0.1l33.5-29.4l-2-2.3L42.6,41z"/>
	</g>
</g>
</svg>
