<?xml version="1.0" encoding="utf-8"?>
<!-- Generator: Adobe Illustrator 22.0.1, SVG Export Plug-In . SVG Version: 6.00 Build 0)  -->
<svg version="1.1" id="Warstwa_1" xmlns="http://www.w3.org/2000/svg" xmlns:xlink="http://www.w3.org/1999/xlink" x="0px" y="0px"
	 viewBox="0 0 103 119.7" style="enable-background:new 0 0 103 119.7;" xml:space="preserve">
<style type="text/css">
	.st0{fill:#63BE01;}
</style>
<g>
	<g>
		<path class="st0" d="M55.1,22c-7.7,0-14,6.3-14,14v9.1H39c-3,0-5.5,2.5-5.5,5.5v17.7c0,3,2.5,5.5,5.5,5.5h32.2
			c3,0,5.5-2.5,5.5-5.5V50.6c0-3-2.5-5.5-5.5-5.5h-2.2V36C69.1,28.3,62.8,22,55.1,22z M44.1,36c0-6.1,4.9-11,11-11s11,4.9,11,11v9.1
			h-22V36z M73.7,50.6v17.7c0,1.4-1.1,2.5-2.5,2.5H39c-1.4,0-2.5-1.1-2.5-2.5V50.6c0-1.4,1.1-2.5,2.5-2.5h32.2
			C72.6,48.1,73.7,49.2,73.7,50.6z"/>
		<path class="st0" d="M55.1,0C42.4,0,30.2,5,21.2,14c-0.6,0.6-0.5,1.6,0.1,2.1c0.6,0.5,1.5,0.5,2,0c17.5-17.5,46-17.5,63.5,0
			s17.5,46,0,63.5s-46,17.5-63.5,0c-8.4-8.4-13.1-19.8-13.1-31.7c0-2.6,0.2-5.1,0.6-7.6c0.1-0.3,0-0.6-0.1-0.9l5.4,5.8
			c0.5,0.7,1.4,0.9,2.1,0.4c0.7-0.5,0.9-1.4,0.4-2.1c-0.1-0.1-0.2-0.2-0.3-0.3L10.8,35c-0.3-0.3-0.6-0.5-1-0.5
			c-0.4,0-0.8,0.1-1.1,0.4l-8.2,7.6c-0.5,0.6-0.5,1.6,0.2,2.1c0.5,0.4,1.3,0.5,1.8,0.1l5.4-5c0,0,0,0.1,0,0.1
			C3.4,65.9,20.9,90.6,47,95.1s50.8-13,55.3-39.1S89.3,5.2,63.2,0.7C60.5,0.2,57.8,0,55.1,0z M9.1,38.6l0.4-0.4l0.5,0.6
			c-0.2-0.1-0.3-0.1-0.5-0.2C9.4,38.5,9.3,38.5,9.1,38.6L9.1,38.6z"/>
	</g>
</g>
</svg>
