<svg xmlns:dc="http://purl.org/dc/elements/1.1/" xmlns:cc="http://creativecommons.org/ns#" xmlns:rdf="http://www.w3.org/1999/02/22-rdf-syntax-ns#" xmlns:svg="http://www.w3.org/2000/svg" xmlns="http://www.w3.org/2000/svg" xmlns:sodipodi="http://sodipodi.sourceforge.net/DTD/sodipodi-0.dtd" xmlns:inkscape="http://www.inkscape.org/namespaces/inkscape" version="1.1" x="0px" y="0px" viewBox="0 0 100 125"><g transform="translate(0,-952.36218)"><path style="text-indent:0;text-transform:none;direction:ltr;block-progression:tb;baseline-shift:baseline;color:#000000;enable-background:accumulate;" d="m 38,981.36216 c -3.2894,0 -6,2.71059 -6,6 l 0,30.00004 c 0,3.2894 2.7106,6 6,6 l 52,0 c 3.2894,0 6,-2.7106 6,-6 l 0,-30.00004 c 0,-3.28941 -2.7106,-6 -6,-6 l -52,0 z m 0,4 52,0 c 1.1426,0 2,0.8574 2,2 l 0,30.00004 c 0,1.1426 -0.8574,2 -2,2 l -52,0 c -1.1426,0 -2,-0.8574 -2,-2 l 0,-30.00004 c 0,-1.1426 0.8574,-2 2,-2 z m -32,3 c -1.1046,0 -2,0.8954 -2,2 0,1.1046 0.8954,2 2,2 l 20,0 c 1.1046,0 2,-0.8954 2,-2 0,-1.1046 -0.8954,-2 -2,-2 l -20,0 z m 37.9062,0.96875 a 2.0001999,2.0001999 0 0 0 -1.2812,3.46875 l 9.8438,9.25004 -9.875,9.875 a 2.0002,2.0002 0 1 0 2.8124,2.8437 l 9.9688,-9.9687 4.0312,3.8125 c 2.5553,2.4086 6.569,2.4028 9.125,0 l 4.0626,-3.8438 10,10 a 2.0002,2.0002 0 1 0 2.8124,-2.8437 l -9.875,-9.875 9.8438,-9.25004 a 2.0005492,2.0005492 0 1 0 -2.75,-2.90625 l -16.8125,15.81249 c -0.8017,0.7536 -2.8584,0.7518 -3.6563,0 L 45.375,989.89341 a 2.0001999,2.0001999 0 0 0 -1.4688,-0.5625 z M 10,1000.3622 c -1.1046,0 -2,0.8954 -2,2 0,1.1046 0.8954,2 2,2 l 16,0 c 1.1046,0 2,-0.8954 2,-2 0,-1.1046 -0.8954,-2 -2,-2 l -16,0 z m 4,12 c -1.1046,0 -2,0.8954 -2,2 0,1.1046 0.8954,2 2,2 l 12,0 c 1.1046,0 2,-0.8954 2,-2 0,-1.1046 -0.8954,-2 -2,-2 l -12,0 z" fill="#ffffff" fill-opacity="1" fill-rule="nonzero" stroke="none" marker="none" visibility="visible" display="inline" overflow="visible"/></g></svg>
